<?xml version="1.0" encoding="utf-8"?>
<!-- Generator: Adobe Illustrator 18.1.1, SVG Export Plug-In . SVG Version: 6.00 Build 0)  -->
<svg version="1.1" id="Layer_1" xmlns="http://www.w3.org/2000/svg" xmlns:xlink="http://www.w3.org/1999/xlink" x="0px" y="0px"
	 viewBox="0 0 480 480" enable-background="new 0 0 480 480" xml:space="preserve">
<path fill="#190045" d="M-167.3,34.1l4,0.3c0,0-26.7,376.5-36.9,412.4l-13-1L-167.3,34.1z"/>
<path fill="#190045" stroke="#000000" stroke-miterlimit="10" d="M-77.8,447.7l-2.8-0.3c0,0,22.4-386.9,25.4-413.2l8.9,1
	L-77.8,447.7z"/>
<path fill="#190045" stroke="#000000" stroke-miterlimit="10" d="M-41.5,35.8l2.8,0.3c0,0-22.4,386.9-25.4,413.1l-8.9-1L-41.5,35.8z
	"/>
<path fill="#190045" d="M-187.1,446.6l-4-0.3c0,0,26.8-376.7,37-412.6l13,1.1L-187.1,446.6z"/>
<circle fill="#190045" stroke="#190045" stroke-width="5" stroke-miterlimit="10" cx="261.7" cy="348.5" r="105.4"/>
<path fill="#190045" stroke="#FFFFFF" stroke-width="5" stroke-miterlimit="10" d="M351.5,348.1c0,49.7-40.3,89.9-89.9,89.9
	c-49.7,0-89.9-40.3-89.9-89.9c0-49.7,40.3-89.9,89.9-89.9C311.3,258.2,351.5,298.5,351.5,348.1z"/>
<linearGradient id="SVGID_1_" gradientUnits="userSpaceOnUse" x1="-94.2933" y1="681.2217" x2="-264.3886" y2="511.1263">
	<stop  offset="0" style="stop-color:#FFFFFF"/>
	<stop  offset="2.493568e-002" style="stop-color:#EDEBF1"/>
	<stop  offset="9.297696e-002" style="stop-color:#C1BACD"/>
	<stop  offset="0.1664" style="stop-color:#998EAD"/>
	<stop  offset="0.2437" style="stop-color:#766891"/>
	<stop  offset="0.3257" style="stop-color:#594779"/>
	<stop  offset="0.4139" style="stop-color:#422D66"/>
	<stop  offset="0.5106" style="stop-color:#301957"/>
	<stop  offset="0.6201" style="stop-color:#230B4D"/>
	<stop  offset="0.7535" style="stop-color:#1B0347"/>
	<stop  offset="0.978" style="stop-color:#190045"/>
</linearGradient>
<path fill="url(#SVGID_1_)" stroke="#FFFFFF" stroke-width="3" stroke-miterlimit="10" d="M-80.5,605.1c0,49.7-40.3,89.9-89.9,89.9
	c-49.7,0-89.9-40.3-89.9-89.9c0-49.7,40.3-89.9,89.9-89.9C-120.7,515.2-80.5,555.5-80.5,605.1z"/>
<path fill="#190045" d="M170.1,33.1c0.1-0.2,4.3,0.3,4.4,0.4c0.1,0.1-13.3,208-13.3,208s-16,206.9-16.4,207.7
	c-0.4,0.8-10.7-0.3-10.8-1c-0.1-0.7,16.5-208.2,16.5-208.2S170.1,33.3,170.1,33.1z"/>
<path fill="#190045" d="M124.1,447.4c-0.1,0.2-4.3-0.3-4.4-0.4c-0.1-0.1,13.3-208,13.3-208s16-206.9,16.4-207.7
	c0.4-0.8,10.7,0.3,10.8,1c0.1,0.7-16.5,208.2-16.5,208.2S124.2,447.3,124.1,447.4z"/>
</svg>
